<svg width="9" height="59" viewBox="0 0 9 59" fill="none" xmlns="http://www.w3.org/2000/svg">
<path d="M4.5 59C3.60998 59 2.73995 58.7361 1.99993 58.2416C1.25991 57.7471 0.683136 57.0443 0.342542 56.2221C0.0019474 55.3998 -0.0871677 54.495 0.0864658 53.6221C0.260099 52.7492 0.688684 51.9474 1.31802 51.318C1.94736 50.6887 2.74918 50.2601 3.62209 50.0865C4.49501 49.9128 5.39981 50.0019 6.22208 50.3425C7.04434 50.6831 7.74715 51.2599 8.24161 51.9999C8.73608 52.74 9 53.61 9 54.5C9 55.6935 8.52589 56.8381 7.68198 57.682C6.83807 58.5259 5.69347 59 4.5 59V59Z" fill="#AA2B45"/>
<path d="M4.5 0C2.01472 0 0 2.01472 0 4.5C0 6.98528 2.01472 9 4.5 9C6.98528 9 9 6.98528 9 4.5C9 2.01472 6.98528 0 4.5 0Z" fill="#F2F2F2"/>
<path d="M4.5 1C2.567 1 1 2.567 1 4.5C1 6.433 2.567 8 4.5 8C6.433 8 8 6.433 8 4.5C8 2.567 6.433 1 4.5 1Z" stroke="#AA2B45" stroke-width="2"/>
<path d="M3 40.5C3 41.3284 3.67157 42 4.5 42C5.32843 42 6 41.3284 6 40.5C6 39.6716 5.32843 39 4.5 39C3.67157 39 3 39.6716 3 40.5Z" fill="#AA2B45"/>
<path d="M3 29.5C3 30.3284 3.67157 31 4.5 31C5.32843 31 6 30.3284 6 29.5C6 28.6716 5.32843 28 4.5 28C3.67157 28 3 28.6716 3 29.5Z" fill="#AA2B45"/>
<path d="M3 18.5C3 19.3284 3.67157 20 4.5 20C5.32843 20 6 19.3284 6 18.5C6 17.6716 5.32843 17 4.5 17C3.67157 17 3 17.6716 3 18.5Z" fill="#AA2B45"/>
</svg>
