<svg width="30" height="23" viewBox="0 0 30 23" fill="none" xmlns="http://www.w3.org/2000/svg">
<path d="M20 3C21.9778 3 23.9112 3.58649 25.5557 4.6853C27.2002 5.78412 28.4819 7.3459 29.2388 9.17317C29.9957 11.0004 30.1937 13.0111 29.8079 14.9509C29.422 16.8907 28.4696 18.6725 27.0711 20.0711C25.6725 21.4696 23.8907 22.422 21.9509 22.8079C20.0111 23.1937 18.0004 22.9957 16.1732 22.2388C14.3459 21.4819 12.7841 20.2002 11.6853 18.5557C10.5865 16.9112 10 14.9778 10 13C10 10.3478 11.0536 7.8043 12.9289 5.92893C14.8043 4.05357 17.3478 3 20 3V3Z" fill="#AA2B45"/>
<path d="M19.9257 15.1279C20.3944 15.1279 20.7753 14.999 21.0682 14.7412C21.3612 14.4834 21.5135 14.1406 21.5253 13.7129H23.9071C23.9012 14.3574 23.7255 14.9492 23.3798 15.4883C23.0341 16.0215 22.5594 16.4375 21.9559 16.7363C21.3583 17.0293 20.6962 17.1758 19.9696 17.1758C18.6102 17.1758 17.538 16.7451 16.7528 15.8838C15.9677 15.0166 15.5751 13.8213 15.5751 12.2979V12.1309C15.5751 10.666 15.9647 9.49707 16.744 8.62402C17.5233 7.75098 18.5927 7.31445 19.952 7.31445C21.1415 7.31445 22.0936 7.6543 22.8085 8.33398C23.5292 9.00781 23.8954 9.90723 23.9071 11.0322H21.5253C21.5135 10.54 21.3612 10.1416 21.0682 9.83691C20.7753 9.52637 20.3885 9.37109 19.9081 9.37109C19.3163 9.37109 18.868 9.58789 18.5634 10.0215C18.2645 10.4492 18.1151 11.1465 18.1151 12.1133V12.377C18.1151 13.3555 18.2645 14.0586 18.5634 14.4863C18.8622 14.9141 19.3163 15.1279 19.9257 15.1279Z" fill="#FCFCFC"/>
<path d="M0 17C0.00137864 17.4195 0.0911439 17.834 0.263445 18.2166C0.435747 18.5991 0.686717 18.941 1 19.22V21C1 21.2652 1.10536 21.5196 1.29289 21.7071C1.48043 21.8946 1.73478 22 2 22H3C3.26522 22 3.51957 21.8946 3.70711 21.7071C3.89464 21.5196 4 21.2652 4 21V20H12V21C12 21.2652 12.1054 21.5196 12.2929 21.7071C12.4804 21.8946 12.7348 22 13 22H14C14.2652 22 14.5196 21.8946 14.7071 21.7071C14.8946 21.5196 15 21.2652 15 21V19.22C15.3133 18.941 15.5643 18.5991 15.7366 18.2166C15.9089 17.834 15.9986 17.4195 16 17V7C16 3.5 12.42 3 8 3C3.58 3 0 3.5 0 7V17ZM3.5 18C3.20333 18 2.91332 17.912 2.66664 17.7472C2.41997 17.5824 2.22771 17.3481 2.11418 17.074C2.00065 16.7999 1.97094 16.4983 2.02882 16.2074C2.0867 15.9164 2.22956 15.6491 2.43934 15.4393C2.64912 15.2296 2.91639 15.0867 3.20736 15.0288C3.49834 14.9709 3.79994 15.0006 4.07403 15.1142C4.34811 15.2277 4.58238 15.42 4.7472 15.6666C4.91203 15.9133 5 16.2033 5 16.5C5 16.8978 4.84196 17.2794 4.56066 17.5607C4.27936 17.842 3.89782 18 3.5 18ZM12.5 18C12.2033 18 11.9133 17.912 11.6666 17.7472C11.42 17.5824 11.2277 17.3481 11.1142 17.074C11.0006 16.7999 10.9709 16.4983 11.0288 16.2074C11.0867 15.9164 11.2296 15.6491 11.4393 15.4393C11.6491 15.2296 11.9164 15.0867 12.2074 15.0288C12.4983 14.9709 12.7999 15.0006 13.074 15.1142C13.3481 15.2277 13.5824 15.42 13.7472 15.6666C13.912 15.9133 14 16.2033 14 16.5C14 16.8978 13.842 17.2794 13.5607 17.5607C13.2794 17.842 12.8978 18 12.5 18ZM14 12H2V7H14V12Z" fill="black"/>
</svg>
